{"title":"The Crown and the Dragon 2013 720p Bluray DTS x264 SilverTorrent","uid":8815840,"size":2638626406,"categoryP":"video","categoryS":"hd___movies","magnet":"?xt=urn:btih:0e8debca7839e999d94a809b6d27ef74a9f5382c&amp;dn=The+Crown+and+the+Dragon+2013+720p+Bluray+DTS+x264+SilverTorrent&amp;tr=udp%3A%2F%2Ftracker.openbittorrent.com%3A80&amp;tr=udp%3A%2F%2Fopen.demonii.com%3A1337&amp;tr=udp%3A%2F%2Ftracker.coppersurfer.tk%3A6969&amp;tr=udp%3A%2F%2Fexodus.desync.com%3A6969","seeders":2,"leechers":1,"uploader":"AliBaloch","files":-1,"time":1376581619,"description":" &lt;a href=&quot;http://i874.photobucket.com/albums/ab306/worldwide7477/Custom%20Covers/The-Crown-and-the-Dragon-2013-Custom-Movie-Cover-Worldwide7477_zpscc2e65c6.png&quot; rel=&quot;nofollow&quot; target=&quot;_NEW&quot;&gt;http://i874.photobucket.com/albums/ab306/worldwide7477/Custom%20Covers/The-Crown-and-the-Dragon-2013-Custom-Movie-Cover-Worldwide7477_zpscc2e65c6.png&lt;/a&gt;\n\nComplete name                            : C:UsersUserVideosThe Crown and the Dragon 2013 720p Bluray DTS x264 SilverTorrentHDThe Crown and the Dragon 2013 720p Bluray DTS x264 SilverTorrentHD.mkv\nFormat                                   : Matroska\nFormat version                           : Version 4 / Version 2\nFile size                                : 2.40 GiB\nDuration                                 : 1h 31mn\nOverall bit rate                         : 3 755 Kbps\nMovie name                               : The Crown and the Dragon (2013) Encoder Worldwide7477\n\nVideo\nFormat                                   : AVC\nFormat/Info                              : Advanced Video Codec\nFormat settings, CABAC                   : Yes\nFormat settings, ReFrames                : 4 frames\nCodec ID                                 : V_MPEG4/ISO/AVC\nDuration                                 : 1h 31mn\nBit rate                                 : 2 999 Kbps\nWidth                                    : 1 280 pixels\nHeight                                   : 720 pixels\nDisplay aspect ratio                     : 16:9\nFrame rate mode                          : Constant\nFrame rate                               : 23.976 fps\nColor space                              : YUV\nChroma subsampling                       : 4:2:0\nBit depth                                : 8 bits\nScan type                                : Progressive\nBits/(Pixel*Frame)                       : 0.136\nStream size                              : 1.87 GiB (78%)\nTitle                                    : The Crown and the Dragon 2013 720p Bluray DTS x264 SilverTorrentHD\nLanguage                                 : English\nDefault                                  : Yes\nForced                                   : No\n\nAudio\nFormat                                   : DTS\nFormat/Info                              : Digital Theater Systems\nFormat settings, Endianness              : Big\nCodec ID                                 : A_DTS\nDuration                                 : 1h 31mn\nBit rate mode                            : Constant\nBit rate                                 : 755 Kbps\nChannel(s)                               : 6 channels\nChannel positions                        : Front: L C R, Side: L R, LFE\nSampling rate                            : 48.0 KHz\nBit depth                                : 24 bits\nCompression mode                         : Lossy\nStream size                              : 494 MiB (20%)\nTitle                                    : Worldwide7477 (DTS)\nLanguage                                 : English\nDefault                                  : Yes\nForced                                   : No\n\nText #1\nID                                       : 3\nFormat                                   : UTF-8\nCodec ID                                 : S_TEXT/UTF8\nCodec ID/Info                            : UTF-8 Plain Text\nTitle                                    : Worldwide7477\nLanguage                                 : English\nDefault                                  : Yes\nForced                                   : No\n\nText #2\nID                                       : 4\nFormat                                   : UTF-8\nCodec ID                                 : S_TEXT/UTF8\nCodec ID/Info                            : UTF-8 Plain Text\nTitle                                    : Worldwide7477\nLanguage                                 : Hindi\nDefault                                  : No\nForced                                   : No\n\nText #3\nID                                       : 5\nFormat                                   : UTF-8\nCodec ID                                 : S_TEXT/UTF8\nCodec ID/Info                            : UTF-8 Plain Text\nTitle                                    : Worldwide7477\nLanguage                                 : Spanish\nDefault                                  : No\nForced                                   : No\n\nText #4\nID                                       : 6\nFormat                                   : UTF-8\nCodec ID                                 : S_TEXT/UTF8\nCodec ID/Info                            : UTF-8 Plain Text\nTitle                                    : Worldwide7477\nLanguage                                 : Tamil\nDefault                                  : No\nForced                                   : No\n\nText #5\nID                                       : 7\nFormat                                   : UTF-8\nCodec ID                                 : S_TEXT/UTF8\nCodec ID/Info                            : UTF-8 Plain Text\nTitle                                    : Worldwide7477\nLanguage                                 : Telugu\nDefault                                  : No\nForced                                   : No\n &lt;a href=&quot;\nhttp://img689.imageshack.us/img689/87/soci.png&quot; rel=&quot;nofollow&quot; target=&quot;_NEW&quot;&gt;\nhttp://img689.imageshack.us/img689/87/soci.png&lt;/a&gt;\n &lt;a href=&quot;\nhttp://img266.imageshack.us/img266/993/rzp2.png&quot; rel=&quot;nofollow&quot; target=&quot;_NEW&quot;&gt;\nhttp://img266.imageshack.us/img266/993/rzp2.png&lt;/a&gt;\n &lt;a href=&quot;\nhttp://img11.imageshack.us/img11/1392/fqk8.png&quot; rel=&quot;nofollow&quot; target=&quot;_NEW&quot;&gt;\nhttp://img11.imageshack.us/img11/1392/fqk8.png&lt;/a&gt;\n &lt;a href=&quot;\nhttp://img89.imageshack.us/img89/944/bz3r.png&quot; rel=&quot;nofollow&quot; target=&quot;_NEW&quot;&gt;\nhttp://img89.imageshack.us/img89/944/bz3r.png&lt;/a&gt;\n &lt;a href=&quot;\nhttp://img138.imageshack.us/img138/3218/aphl.png&quot; rel=&quot;nofollow&quot; target=&quot;_NEW&quot;&gt;\nhttp://img138.imageshack.us/img138/3218/aphl.png&lt;/a&gt;\n","torrent":{"xt":"urn:btih:0e8debca7839e999d94a809b6d27ef74a9f5382c","amp;dn":"The+Crown+and+the+Dragon+2013+720p+Bluray+DTS+x264+SilverTorrent","amp;tr":["udp%3A%2F%2Ftracker.openbittorrent.com%3A80","udp%3A%2F%2Fopen.demonii.com%3A1337","udp%3A%2F%2Ftracker.coppersurfer.tk%3A6969","udp%3A%2F%2Fexodus.desync.com%3A6969"],"infoHash":"0e8debca7839e999d94a809b6d27ef74a9f5382c","infoHashBuffer":{"type":"Buffer","data":[14,141,235,202,120,57,233,153,217,74,128,155,109,39,239,116,169,245,56,44]},"announce":[],"urlList":[]}}